HIERARCHY
ROOT Hips
{
	OFFSET 0.000000 0.000000 0.000000
	CHANNELS 6 Xposition Yposition Zposition Zrotation Yrotation Xrotation
	JOINT LHipJoint
	{
		OFFSET 0.000000 0.000000 0.000000
		CHANNELS 3 Zrotation Yrotation Xrotation
		JOINT LeftHip
		{
			OFFSET 0.070429 -0.092715 0.040477
			CHANNELS 3 Zrotation Yrotation Xrotation
			JOINT LeftKnee
			{
				OFFSET 0.140731 -0.386656 0.000000
				CHANNELS 3 Zrotation Yrotation Xrotation
				JOINT LeftAnkle
				{
					OFFSET 0.133642 -0.367180 0.000000
					CHANNELS 3 Zrotation Yrotation Xrotation
					JOINT LeftToe
					{
						OFFSET 0.008365 -0.022983 0.124964
						CHANNELS 3 Zrotation Yrotation Xrotation
						End Site
						{
							OFFSET 0.000000 0.000000 0.064059
						}
					}
				}
			}
		}
	}
	JOINT RHipJoint
	{
		OFFSET 0.000000 0.000000 0.000000
		CHANNELS 3 Zrotation Yrotation Xrotation
		JOINT RightHip
		{
			OFFSET -0.066785 -0.092715 0.040477
			CHANNELS 3 Zrotation Yrotation Xrotation
			JOINT RightKnee
			{
				OFFSET -0.139168 -0.382361 0.000000
				CHANNELS 3 Zrotation Yrotation Xrotation
				JOINT RightAnkle
				{
					OFFSET -0.134591 -0.369785 0.000000
					CHANNELS 3 Zrotation Yrotation Xrotation
					JOINT RightToe
					{
						OFFSET -0.009852 -0.027067 0.114539
						CHANNELS 3 Zrotation Yrotation Xrotation
						End Site
						{
							OFFSET 0.000000 0.000000 0.059309
						}
					}
				}
			}
		}
	}
	JOINT lowerback
	{
		OFFSET 0.000000 0.000000 0.000000
		CHANNELS 3 Zrotation Yrotation Xrotation
		JOINT Chest
		{
			OFFSET -0.001301 0.112132 0.000180
			CHANNELS 3 Zrotation Yrotation Xrotation
			JOINT Chest2
			{
				OFFSET -0.000405 0.112342 -0.000301
				CHANNELS 3 Zrotation Yrotation Xrotation
				JOINT lowerneck
				{
					OFFSET 0.000000 0.000000 0.000000
					CHANNELS 3 Zrotation Yrotation Xrotation
					JOINT Neck
					{
						OFFSET 0.000054 0.090883 0.006038
						CHANNELS 3 Zrotation Yrotation Xrotation
						JOINT Head
						{
							OFFSET -0.000598 0.090268 0.000743
							CHANNELS 3 Zrotation Yrotation Xrotation
							End Site
							{
								OFFSET -0.000259 0.092175 -0.000334
							}
						}
					}
				}
				JOINT LeftCollar
				{
					OFFSET 0.000000 0.000000 0.000000
					CHANNELS 3 Zrotation Yrotation Xrotation
					JOINT LeftShoulder
					{
						OFFSET 0.172369 0.083022 -0.000958
						CHANNELS 3 Zrotation Xrotation Yrotation
						JOINT LeftElbow
						{
							OFFSET 0.000000 -0.239947 0.000000
							CHANNELS 3 Zrotation Xrotation Yrotation
							JOINT LeftWrist
							{
								OFFSET 0.000000 -0.184906 0.000000
								CHANNELS 3 Zrotation Xrotation Yrotation
								JOINT lhand
								{
									OFFSET 0.000000 0.000000 0.000000
									CHANNELS 3 Zrotation Xrotation Yrotation
									JOINT LFingers
									{
										OFFSET 0.000000 -0.037129 0.000000
										CHANNELS 3 Zrotation Xrotation Yrotation
										End Site
										{
											OFFSET 0.000000 -0.029935 0.000000
										}
									}
								}
								JOINT LThumb
								{
									OFFSET 0.000000 0.000000 0.000000
									CHANNELS 3 Zrotation Xrotation Yrotation
									End Site
									{
										OFFSET 0.000000 -0.030392 0.030392
									}
								}
							}
						}
					}
				}
				JOINT RightCollar
				{
					OFFSET 0.000000 0.000000 0.000000
					CHANNELS 3 Zrotation Yrotation Xrotation
					JOINT RightShoulder
					{
						OFFSET -0.160129 0.074291 -0.012798
						CHANNELS 3 Zrotation Xrotation Yrotation
						JOINT RightElbow
						{
							OFFSET 0.000000 -0.251781 0.000000
							CHANNELS 3 Zrotation Xrotation Yrotation
							JOINT RightWrist
							{
								OFFSET 0.000000 -0.194402 0.000000
								CHANNELS 3 Zrotation Xrotation Yrotation
								JOINT rhand
								{
									OFFSET 0.000000 0.000000 0.000000
									CHANNELS 3 Zrotation Xrotation Yrotation
									JOINT RFingers
									{
										OFFSET 0.000000 -0.034798 0.000000
										CHANNELS 3 Zrotation Xrotation Yrotation
										End Site
										{
											OFFSET 0.000000 -0.028055 0.000000
										}
									}
								}
								JOINT RThumb
								{
									OFFSET 0.000000 0.000000 0.000000
									CHANNELS 3 Zrotation Xrotation Yrotation
									End Site
									{
										OFFSET 0.000000 -0.028484 0.028484
									}
								}
							}
						}
					}
				}
			}
		}
	}
}
MOTION
Frames: 9
Frame Time: 0.008333
0.253309 0.981668 -0.419825 -5.048701 13.357200 9.336700 -0.000002 -0.000001 0.000001 -11.182703 -11.398008 -37.889501 12.291219 18.511093 66.908902 0.118903 -2.721202 8.108098 5.020405 13.406710 40.910682 0.000001 -0.000002 0.000003 27.209609 4.532209 -24.309704 -4.689682 -13.025599 39.464396 0.173906 9.237810 -2.562803 -1.390996 -7.461905 21.091100 2.372198 2.928901 1.604599 3.661699 3.827096 3.858300 2.482098 1.926301 2.977501 0.575000 -7.259801 -11.099699 0.867101 -11.011798 36.660197 -1.384400 -4.404499 14.493496 0.000002 0.000001 0.000002 10.869507 36.454608 -48.261208 33.075912 -43.388305 13.474223 -3.203101 -9.970403 -9.924495 -0.000001 -0.000000 -0.000000 -7.125004 0.000000 -0.000000 -25.658301 38.561920 -4.419921 -0.000001 0.000003 0.000001 -16.722608 -14.041297 56.483007 -154.158503 -37.051819 -111.208006 -65.531205 32.654694 36.625418 0.000000 -0.000001 0.000000 7.125006 0.000000 0.000003 -96.583731 76.157012 82.615072 
0.252773 0.983311 -0.416771 -5.693601 13.931901 9.142099 -0.000002 -0.000001 0.000003 -10.063598 -12.298704 -39.650297 12.906512 18.748094 68.834708 0.152802 -2.782398 8.953898 5.267801 13.679104 41.966987 0.000000 -0.000003 -0.000001 28.131509 4.182105 -23.283106 -4.310381 -12.562400 37.751692 0.109002 8.496908 -3.475503 -1.240696 -7.062907 19.901803 2.948500 2.816901 1.640000 3.936599 3.673601 3.852599 2.442600 1.862400 2.975902 0.542101 -7.300601 -11.094104 0.888899 -11.068000 36.633501 -1.377600 -4.430199 14.484198 0.000004 -0.000003 -0.000001 10.994505 36.798812 -48.160702 33.559308 -43.755602 13.807427 -3.992401 -10.654903 -10.361598 0.000000 0.000000 0.000001 -7.125004 0.000000 0.000001 -26.437398 38.889120 -4.344417 -0.000004 -0.000004 -0.000002 -16.710309 -13.983099 56.459399 -154.243102 -36.967620 -111.259000 -65.358504 32.652894 36.492410 -0.000000 0.000000 -0.000001 7.125004 -0.000000 -0.000001 -95.451347 76.175420 81.437158 
0.252214 0.984310 -0.413588 -6.178699 14.489801 8.943601 -0.000003 0.000001 0.000000 -9.182400 -13.174005 -41.215800 13.395011 18.920198 70.348100 0.160599 -2.989399 9.282797 5.387003 13.806708 42.468685 -0.000003 -0.000005 0.000001 28.878211 3.817805 -22.220508 -3.941983 -12.082796 36.025601 0.026499 7.659508 -4.767504 -1.108195 -6.688406 18.795304 3.394301 2.703299 1.679799 4.153199 3.519802 3.859199 2.415799 1.795601 2.978599 0.502201 -7.344201 -11.085999 0.911300 -11.125898 36.598397 -1.369199 -4.457900 14.470896 0.000001 -0.000001 0.000002 11.155307 37.118212 -48.107006 33.984808 -44.073503 14.102525 -4.626102 -11.449604 -10.759097 -0.000000 -0.000001 -0.000000 -7.125004 -0.000000 0.000001 -27.082798 39.190314 -4.248923 -0.000000 -0.000001 0.000002 -16.662205 -13.923294 56.428595 -154.318999 -36.891918 -111.304599 -65.203008 32.697297 36.371519 -0.000001 0.000000 -0.000001 7.125003 0.000000 -0.000000 -94.426935 76.184852 80.369094 
0.251633 0.984654 -0.410291 -6.515501 14.984200 8.741499 -0.000004 0.000003 0.000000 -8.539704 -13.971006 -42.560002 13.736015 19.032001 71.396705 0.152902 -3.189702 9.273198 5.421208 13.843005 42.612089 -0.000002 -0.000003 0.000003 29.453012 3.491609 -21.138303 -3.595581 -11.601898 34.337697 -0.074096 6.674007 -6.340905 -0.991097 -6.336307 17.763200 3.710400 2.609501 1.733499 4.317798 3.394598 3.875700 2.407500 1.740201 2.977504 0.454000 -7.393496 -11.076902 0.920801 -11.185601 36.574304 -1.365100 -4.488700 14.462103 -0.000001 -0.000001 -0.000001 11.343009 37.385409 -48.105408 34.302511 -44.307601 14.324030 -5.112900 -12.251702 -11.097698 0.000000 0.000000 -0.000002 -7.125005 0.000000 -0.000005 -27.593495 39.449212 -4.149821 -0.000002 0.000003 -0.000001 -16.589008 -13.849096 56.379001 -154.383900 -36.827120 -111.343497 -65.090002 32.798398 36.276111 -0.000002 0.000000 0.000001 7.125004 0.000001 0.000000 -93.649270 76.185911 79.554990 
0.251046 0.984304 -0.406916 -6.733600 15.374199 8.545300 -0.000005 -0.000002 0.000002 -8.103602 -14.656205 -43.681204 13.917518 19.088799 71.952505 0.143602 -3.268102 9.131802 5.424004 13.845907 42.623679 -0.000002 -0.000003 0.000001 29.878307 3.235308 -20.082804 -3.282285 -11.138598 32.748595 -0.182399 5.541806 -7.982303 -0.897394 -6.037706 16.893804 3.928399 2.549699 1.802999 4.435499 3.316796 3.897098 2.405000 1.706298 2.968299 0.399499 -7.445498 -11.070400 0.907901 -11.240697 36.573604 -1.368900 -4.520199 14.463298 0.000001 -0.000002 -0.000001 11.540307 37.581108 -48.129007 34.471111 -44.430797 14.441933 -5.485303 -12.954103 -11.350898 -0.000000 0.000000 -0.000001 -7.125003 0.000001 -0.000001 -27.983691 39.640714 -4.073819 -0.000004 -0.000001 -0.000004 -16.496107 -13.754299 56.318700 -154.440795 -36.770118 -111.377600 -65.026406 32.945797 36.214220 -0.000002 -0.000000 0.000000 7.125004 0.000000 0.000000 -93.187338 76.181546 79.067171 
0.250527 0.983243 -0.403518 -6.877800 15.623301 8.366399 -0.000007 -0.000000 0.000002 -7.814103 -15.212206 -44.593199 13.937616 19.094998 72.013806 0.142202 -3.208700 9.050701 5.451809 13.875205 42.739786 -0.000003 -0.000001 0.000001 30.195112 3.035909 -19.112007 -3.010787 -10.712499 31.316393 -0.284299 4.387804 -9.517101 -0.898696 -6.041707 16.905601 4.099300 2.534397 1.882901 4.515599 3.299999 3.914903 2.389600 1.701799 2.947903 0.338500 -7.495994 -11.069898 0.867998 -11.283899 36.605101 -1.382000 -4.549399 14.478896 0.000001 0.000003 0.000000 11.724911 37.713511 -48.144405 34.495607 -44.448597 14.459027 -5.778502 -13.476405 -11.511900 0.000000 0.000001 -0.000001 -7.125006 0.000000 -0.000004 -28.277601 39.756721 -4.035618 -0.000004 0.000002 0.000002 -16.392309 -13.642500 56.257796 -154.490601 -36.720115 -111.407400 -65.034104 33.157894 36.205118 0.000000 0.000000 0.000001 7.125003 -0.000000 0.000000 -93.181033 76.174381 79.052999 
0.250132 0.981499 -0.400148 -6.989700 15.713800 8.218500 -0.000004 -0.000002 0.000002 -7.600505 -15.652406 -45.317298 13.802415 19.052997 71.600306 0.152302 -3.079602 9.171803 5.508403 13.934410 42.975181 -0.000003 -0.000001 -0.000001 30.450206 2.825505 -18.294114 -2.787686 -10.343296 30.095593 -0.374300 3.443803 -10.887903 -0.963699 -6.250606 17.513402 4.268100 2.564699 1.963299 4.568098 3.345302 3.922100 2.347000 1.728400 2.917097 0.273999 -7.537896 -11.076000 0.798902 -11.304801 36.662902 -1.403799 -4.572299 14.505896 0.000001 0.000002 -0.000001 11.870313 37.795610 -48.111706 34.384706 -44.367802 14.381428 -5.998102 -13.760903 -11.559592 0.000000 0.000000 -0.000001 -7.125004 0.000001 -0.000002 -28.470004 39.778619 -4.051818 -0.000002 -0.000000 -0.000001 -16.290512 -13.530898 56.209800 -154.531896 -36.678717 -111.432002 -65.096300 33.399297 36.243815 0.000001 0.000001 -0.000001 7.125003 0.000001 -0.000002 -93.558545 76.168528 79.441281 
0.249917 0.979134 -0.396863 -7.095200 15.639098 8.117701 -0.000003 0.000005 -0.000001 -7.402203 -16.013804 -45.879098 13.528212 18.964695 70.758294 0.176002 -2.977799 9.602402 5.579905 14.008511 43.271591 0.000006 0.000002 0.000000 30.673212 2.538212 -17.677909 -2.615486 -10.044899 29.122202 -0.452102 2.891303 -12.036697 -1.085693 -6.622306 18.601202 4.466900 2.634700 2.029000 4.599499 3.443397 3.914998 2.266499 1.782199 2.882800 0.211001 -7.561603 -11.096501 0.697501 -11.288900 36.734602 -1.434400 -4.582999 14.539400 0.000004 -0.000002 -0.000001 11.951212 37.853506 -47.996515 34.185015 -44.221401 14.242029 -6.127701 -13.794102 -11.539494 0.000000 -0.000000 0.000004 -7.125004 -0.000001 0.000004 -28.565197 39.748617 -4.091912 0.000001 -0.000003 -0.000002 -16.205807 -13.442795 56.199906 -154.566006 -36.644317 -111.452397 -65.196498 33.633801 36.305713 -0.000003 0.000000 0.000001 7.125002 -0.000000 -0.000000 -94.162791 76.157634 80.062631 
0.249917 0.976244 -0.393691 -7.204999 15.406600 8.066901 -0.000001 0.000002 0.000000 -7.176101 -16.347407 -46.286802 13.144913 18.833897 69.575005 0.213806 -2.947599 10.333993 5.639310 14.069405 43.516184 0.000001 -0.000002 0.000001 30.874210 2.145207 -17.282808 -2.495487 -9.829699 28.426800 -0.518701 2.833202 -12.929299 -1.298996 -7.220908 20.371406 4.704300 2.734497 2.074701 4.615600 3.580800 3.895799 2.149900 1.856401 2.851299 0.150300 -7.560999 -11.122299 0.569399 -11.227700 36.793105 -1.469200 -4.578601 14.565203 0.000001 0.000001 0.000001 11.946310 37.907106 -47.781603 33.935518 -44.036904 14.068232 -6.116402 -13.606502 -11.491299 0.000000 0.000000 -0.000000 -7.125003 -0.000001 -0.000001 -28.537797 39.707018 -4.119821 -0.000000 0.000000 -0.000001 -16.149508 -13.396698 56.236608 -154.592384 -36.617710 -111.468202 -65.287599 33.828595 36.382915 -0.000000 0.000000 -0.000001 7.125004 0.000000 -0.000001 -94.786435 76.156083 80.716225 
